<svg xmlns="http://www.w3.org/2000/svg" version="1.1" xmlns:xlink="http://www.w3.org/1999/xlink" xmlns:svgjs="http://svgjs.com/svgjs" width="512" height="512" x="0" y="0" viewBox="0 0 512 512" style="enable-background:new 0 0 512 512" xml:space="preserve" class=""><g><path fill="#f7cc4b" d="M512 256c0 80.756-37.394 152.756-95.809 199.675H95.809C37.394 408.756 0 336.756 0 256 0 114.615 114.615 0 256 0s256 114.615 256 256z" data-original="#f7cc4b" class=""></path><path fill="#f3b747" d="M339.271 109.206 161.265 287.212l168.463 168.463h86.463c52.378-42.071 87.833-104.312 94.607-174.943z" data-original="#f3b747"></path><path fill="#2b5f7a" d="m256 73.664-57.857 15.885-78.405 196.083c3.266 5.508 53.174 86.748 136.262 84.559l17.104-158.595z" data-original="#2b5f7a"></path><path fill="#1e465c" d="m256 73.664 57.857 15.885 78.405 196.083c-3.266 5.508-53.174 86.748-136.262 84.559z" data-original="#1e465c" class=""></path><path fill="#fcbeac" d="M207.174 254.824v97.653H256l17.104-48.827L256 254.824z" data-original="#fcbeac"></path><path fill="#f7a690" d="M256 254.824h48.826v97.652H256z" data-original="#f7a690"></path><path fill="#1e465c" d="m256 349.221-48.826-39.4h-60.047c-5.29 0-10.397.802-15.199 2.289-20.921 6.477-36.119 25.975-36.119 49.025v94.541A256.303 256.303 0 0 0 131 479.432L256 512l15-76.064z" data-original="#1e465c" class=""></path><path fill="#132f3c" d="M380.072 312.11a51.315 51.315 0 0 0-15.199-2.289h-60.047L256 349.222V512l124.725-32.41a256.39 256.39 0 0 0 35.465-23.915v-94.541c.001-23.049-15.197-42.547-36.118-49.024z" data-original="#132f3c" class=""></path><path fill="#fdcdbf" d="M256 85.486c-41.066 0-74.356 33.29-74.356 74.356v8.007c-2.692-2.449-5.674-3.651-8.58-3.138-7.377 1.301-11.459 13.119-9.117 26.397s10.219 22.988 17.596 21.687c.034-.006.067-.016.101-.023v7.712a29.93 29.93 0 0 0 6.113 18.125l30.103 39.546a29.923 29.923 0 0 0 23.81 11.799H256l17.104-101.201z" data-original="#fdcdbf" class=""></path><path fill="#fcbeac" d="M338.936 164.711c-2.906-.512-5.888.689-8.58 3.138v-8.007c0-41.066-33.29-74.356-74.356-74.356v204.468h14.33a29.921 29.921 0 0 0 23.81-11.799l30.103-39.546a29.922 29.922 0 0 0 6.113-18.124v-7.712c.034.006.067.017.101.023 7.377 1.301 15.255-8.409 17.596-21.687 2.342-13.279-1.74-25.098-9.117-26.398z" data-original="#fcbeac"></path><path fill="#1e465c" d="M198.143 89.548c-54.748 31.691-84.212 108.768-78.405 196.083 0 0 53.174-112.992 136.262-115.181L271 119l-15-45.336c-26.567.772-45.63 8.807-57.857 15.884z" data-original="#1e465c" class=""></path><path fill="#132f3c" d="M392.262 285.632c5.807-87.315-23.657-164.392-78.405-196.083C301.63 82.471 282.566 74.436 256 73.664v96.787c83.088 2.189 136.262 115.181 136.262 115.181z" data-original="#132f3c" class=""></path><path fill="#ffffff" d="M131 346v133.432a255.762 255.762 0 0 0 12.99 6.806 254.95 254.95 0 0 0 15 6.721C188.915 505.231 221.653 512 256 512l15-83-15-83z" data-original="#ffffff"></path><path fill="#e9edf5" d="M368.009 486.239A255.386 255.386 0 0 0 381 479.432V346H256v166c34.337 0 67.091-6.775 97.009-19.041a255.235 255.235 0 0 0 15-6.72z" data-original="#e9edf5"></path><path fill="#e9edf5" d="M256 400.243c-16.569 0-30 13.431-30 30s13.431 30 30 30l5.604-30z" data-original="#e9edf5"></path><path fill="#cdd2e1" d="M256 400.243c16.569 0 30 13.431 30 30s-13.431 30-30 30z" data-original="#cdd2e1"></path></g></svg>